HIERARCHY
ROOT Hips
{
	OFFSET 0.000000 0.000000 0.000000
	CHANNELS 6 Xposition Yposition Zposition Zrotation Yrotation Xrotation 
	JOINT LHipJoint
	{
		OFFSET 0.000000 0.000000 0.000000
		CHANNELS 3 Zrotation Yrotation Xrotation
		JOINT LeftUpLeg
		{
			OFFSET 1.363060 -1.794630 0.839290
			CHANNELS 3 Zrotation Yrotation Xrotation
			JOINT LeftLeg
			{
				OFFSET 2.448110 -6.726130 0.000000
				CHANNELS 3 Zrotation Yrotation Xrotation
				JOINT LeftFoot
				{
					OFFSET 2.562200 -7.039590 0.000000
					CHANNELS 3 Zrotation Yrotation Xrotation
					JOINT LeftToeBase
					{
						OFFSET 0.157640 -0.433110 2.322550
						CHANNELS 3 Zrotation Yrotation Xrotation
						End Site
						{
							OFFSET 0.000000 0.000000 0.000000
						}
					}
				}
			}
		}
	}
	JOINT RHipJoint
	{
		OFFSET 0.000000 0.000000 0.000000
		CHANNELS 3 Zrotation Yrotation Xrotation
		JOINT RightUpLeg
		{
			OFFSET -1.305520 -1.794630 0.839290
			CHANNELS 3 Zrotation Yrotation Xrotation
			JOINT RightLeg
			{
				OFFSET -2.542530 -6.985550 0.000000
				CHANNELS 3 Zrotation Yrotation Xrotation
				JOINT RightFoot
				{
					OFFSET -2.568260 -7.056230 0.000000
					CHANNELS 3 Zrotation Yrotation Xrotation
					JOINT RightToeBase
					{
						OFFSET -0.164730 -0.452590 2.363150
						CHANNELS 3 Zrotation Yrotation Xrotation
						End Site
						{
							OFFSET 0.000000 0.000000 0.000000
						}
					}
				}
			}
		}
	}
	JOINT LowerBack
	{
		OFFSET 0.000000 0.000000 0.000000
		CHANNELS 3 Zrotation Yrotation Xrotation
		JOINT Spine
		{
			OFFSET 0.028270 2.035590 -0.193380
			CHANNELS 3 Zrotation Yrotation Xrotation
			JOINT Spine1
			{
				OFFSET 0.056720 2.048850 -0.042750
				CHANNELS 3 Zrotation Yrotation Xrotation
				JOINT Neck
				{
					OFFSET 0.000000 0.000000 0.000000
					CHANNELS 3 Zrotation Yrotation Xrotation
					JOINT Neck1
					{
						OFFSET -0.054170 1.746240 0.172020
						CHANNELS 3 Zrotation Yrotation Xrotation
						JOINT Head
						{
							OFFSET 0.104070 1.761360 -0.123970
							CHANNELS 3 Zrotation Yrotation Xrotation
							End Site
							{
								OFFSET 0.000000 0.000000 0.000000
							}
						}
					}
				}
				JOINT LeftShoulder
				{
					OFFSET 0.000000 0.000000 0.000000
					CHANNELS 3 Zrotation Yrotation Xrotation
					JOINT LeftArm
					{
						OFFSET 3.362410 1.200890 -0.311210
						CHANNELS 3 Zrotation Yrotation Xrotation
						JOINT LeftForeArm
						{
							OFFSET 4.983000 -0.000000 -0.000000
							CHANNELS 3 Zrotation Yrotation Xrotation
							JOINT LeftHand
							{
								OFFSET 3.483560 -0.000000 -0.000000
								CHANNELS 3 Zrotation Yrotation Xrotation
								JOINT LeftFingerBase
								{
									OFFSET 0.000000 0.000000 0.000000
									CHANNELS 3 Zrotation Yrotation Xrotation
									JOINT LeftHandIndex1
									{
										OFFSET 0.715260 -0.000000 -0.000000
										CHANNELS 3 Zrotation Yrotation Xrotation
										End Site
										{
											OFFSET 0.000000 0.000000 0.000000
										}
									}
								}
								JOINT LThumb
								{
									OFFSET 0.000000 0.000000 0.000000
									CHANNELS 3 Zrotation Yrotation Xrotation
									End Site
									{
										OFFSET 0.000000 0.000000 0.000000
									}
								}
							}
						}
					}
				}
				JOINT RightShoulder
				{
					OFFSET 0.000000 0.000000 0.000000
					CHANNELS 3 Zrotation Yrotation Xrotation
					JOINT RightArm
					{
						OFFSET -3.136600 1.374050 -0.404650
						CHANNELS 3 Zrotation Yrotation Xrotation
						JOINT RightForeArm
						{
							OFFSET -5.241900 -0.000000 -0.000000
							CHANNELS 3 Zrotation Yrotation Xrotation
							JOINT RightHand
							{
								OFFSET -3.444170 -0.000000 -0.000000
								CHANNELS 3 Zrotation Yrotation Xrotation
								JOINT RightFingerBase
								{
									OFFSET 0.000000 0.000000 0.000000
									CHANNELS 3 Zrotation Yrotation Xrotation
									JOINT RightHandIndex1
									{
										OFFSET -0.622530 -0.000000 -0.000000
										CHANNELS 3 Zrotation Yrotation Xrotation
										End Site
										{
											OFFSET 0.000000 0.000000 0.000000
										}
									}
								}
								JOINT RThumb
								{
									OFFSET 0.000000 0.000000 0.000000
									CHANNELS 3 Zrotation Yrotation Xrotation
									End Site
									{
										OFFSET 0.000000 0.000000 0.000000
									}
								}
							}
						}
					}
				}
			}
		}
	}
}
MOTION
Frames: 11
Frame Time: 0.008333
-39.771676 17.028980 13.313077 -166.498837 77.938421 -153.817080 2.659307 -1.035860 -3.881808 -7.509226 15.940714 -40.567154 12.798883 20.373490 66.910352 0.603791 0.600812 -1.179628 0.055800 -1.524200 -4.192400 0.839921 0.145909 1.221580 4.454067 -4.157708 -13.553149 -0.933500 -9.798040 28.896289 1.529718 -7.560066 -3.823382 -4.214800 12.440900 -37.310100 4.032622 0.354000 27.665305 0.950175 4.033435 -2.096736 3.309588 1.487035 1.950597 -5.682234 -2.557175 -10.354965 2.568053 -1.294478 1.327422 4.029100 1.236900 -2.845700 1.223654 -0.136908 0.466842 -80.111442 20.077522 47.262410 12.288069 -31.826703 -4.916181 -0.882624 -3.218051 -25.619055 25.186926 26.400128 13.936300 -7.125000 0.000000 0.000000 -3.947700 61.515700 -1.588500 -2.759777 1.811661 2.168721 72.237114 33.029404 50.877339 -94.118375 56.582728 -68.994321 -0.324661 -0.695618 26.780714 -35.742095 30.649661 -20.669900 7.125000 0.000000 0.000000 -2.275600 7.136700 -2.542500 
-39.654178 16.980080 13.180516 -164.894963 77.890403 -152.371658 2.958187 -0.988394 -4.126524 -6.483138 15.941935 -41.144710 12.931547 20.414099 67.010565 0.536134 0.852517 -1.569579 0.047200 -1.402300 -3.856600 0.827391 -0.061888 1.444100 4.401302 -4.245844 -12.835269 -0.793517 -9.540059 28.217085 1.539960 -7.575488 -3.702997 -4.334700 12.593000 -37.863300 4.556148 0.742633 28.439066 0.849171 4.538745 -2.050253 2.293165 1.915812 1.797787 -5.400221 -2.990487 -9.911390 2.728582 -1.906651 1.131349 4.325700 1.051300 -3.095900 0.882610 -0.004974 0.500150 -78.420024 21.480571 47.842516 11.057540 -30.484610 -4.357169 -0.801611 -3.446671 -24.662761 25.104820 26.992315 14.255200 -7.125000 0.000000 0.000000 -4.504300 62.414900 -1.908600 -2.749568 1.902831 2.220978 72.048610 34.394334 50.179723 -86.134515 56.166667 -62.175602 -0.405405 -0.810484 28.266684 -37.109408 31.320341 -22.109500 7.125000 0.000000 0.000000 -2.817300 8.532900 -3.207700 
-39.539808 16.912757 13.051662 -163.746576 77.864041 -151.213176 3.221261 -0.929264 -4.368482 -5.478242 15.753064 -41.773121 12.941639 20.446539 66.798301 0.552446 0.860134 -1.841073 0.001400 -0.245700 -0.675100 0.782190 -0.207668 1.607316 4.316615 -4.499306 -12.312040 -0.685019 -9.267748 27.538569 1.898579 -8.294741 -3.476225 -4.665200 12.996500 -39.355500 4.332535 1.258702 28.913458 0.823596 5.259127 -1.985469 2.704124 2.261215 1.767676 -6.101285 -3.393509 -9.540578 2.996337 -2.435226 0.983387 4.814600 0.951600 -3.306000 0.695189 0.005023 0.551058 -77.682857 22.874914 48.311319 10.015859 -29.533552 -3.885644 -0.782401 -3.558754 -23.722483 25.405480 27.276597 14.609700 -7.125000 0.000000 0.000000 -4.388200 62.948900 -1.914400 -2.636277 1.976480 2.226653 70.993378 35.519743 49.078638 -77.578920 55.278408 -54.840939 -0.495916 -0.886210 28.671741 -37.817148 32.554657 -23.370200 7.125000 0.000000 0.000000 -2.819300 10.280700 -3.280800 
-39.410144 16.864900 12.928022 -162.081539 77.908110 -149.417486 3.500213 -0.859291 -4.624755 -4.562483 15.988095 -42.504736 12.890465 20.430448 66.356865 0.478401 1.141738 -2.098088 0.000300 0.109100 0.299700 0.775319 -0.341177 1.757156 4.308710 -4.315115 -11.642914 -0.500435 -8.950085 26.651727 2.194921 -8.884707 -3.155001 -4.816400 13.174000 -40.023200 4.066423 1.834518 29.059768 0.776263 5.974043 -1.886757 2.982484 2.631271 2.238733 -6.830496 -3.703102 -9.712902 3.271810 -2.838770 0.987233 5.389600 0.929700 -3.290700 0.434831 0.105464 0.576801 -76.623385 23.910220 48.844991 9.323029 -28.976299 -3.586374 -0.757810 -3.689078 -23.128910 25.861448 27.430649 15.018900 -7.125000 0.000000 0.000000 -3.992200 63.400600 -1.783600 -2.544072 1.941478 2.222036 70.136642 37.157616 47.775132 -67.943070 53.684530 -46.397980 -0.643858 -1.024471 29.641189 -39.314582 32.688712 -24.720000 7.125000 0.000000 0.000000 -3.478100 11.285500 -4.098300 
-39.270977 16.813335 12.801138 -159.225754 77.842322 -146.516566 3.833580 -0.741140 -4.877353 -3.464055 16.566633 -43.405152 12.863532 20.388231 65.871263 0.334375 1.571221 -1.967806 0.000300 0.114600 0.314800 0.793764 -0.463572 1.939167 4.561360 -3.805968 -10.779002 -0.281505 -8.627802 25.726030 2.804538 -10.114022 -3.185932 -5.095900 13.491000 -41.235400 4.033887 2.553558 28.999208 0.720370 6.840126 -1.821784 2.785919 3.109766 2.105351 -6.496213 -4.085991 -8.579798 3.309077 -3.429056 0.833240 5.351200 0.675800 -3.879500 0.316850 0.214224 0.644046 -74.655278 25.845869 50.071719 8.984502 -28.977562 -3.479932 -0.649167 -3.932471 -23.060054 26.092350 28.155797 15.587800 -7.125000 0.000000 0.000000 -4.267800 64.506800 -2.017100 -2.274480 1.984992 2.325850 69.684200 38.091007 45.951471 -58.262859 51.432688 -38.042269 -0.796349 -1.217917 30.216636 -40.388303 32.615685 -25.706100 7.125000 0.000000 0.000000 -3.958200 11.995600 -4.704400 
-39.123235 16.776139 12.660697 -157.272516 77.721979 -144.444206 4.118992 -0.686738 -5.145297 -2.552345 16.858416 -44.167256 12.752389 20.326442 65.232870 0.136817 2.160913 -1.978871 0.002900 0.350400 0.962800 0.819241 -0.660252 2.153164 4.629644 -3.471923 -9.938182 -0.076798 -8.248004 24.592281 3.730526 -11.993600 -2.942730 -5.585100 14.013900 -43.293100 4.233493 3.207745 29.156374 0.630247 7.618031 -1.743361 2.232401 3.610663 2.852910 -6.225280 -4.893174 -9.673446 3.349766 -4.480470 0.753612 5.468300 0.278200 -3.486000 0.071909 0.352429 0.544429 -72.545001 26.630523 51.514797 8.996941 -29.203056 -3.517443 -0.520218 -4.185018 -23.691374 26.379535 28.972415 16.241700 -7.125000 0.000000 0.000000 -4.524700 65.707600 -2.264700 -2.048432 2.012004 2.342586 68.648526 40.659062 42.976914 -48.685882 48.045180 -30.155950 -1.013074 -1.477058 29.914585 -40.531566 34.014685 -26.820500 7.125000 0.000000 0.000000 -3.459900 14.021200 -4.201700 
-38.965760 16.732917 12.515389 -156.965982 77.766008 -143.900776 4.349619 -0.644947 -5.343091 -2.171750 17.144982 -44.964555 12.564982 20.238697 64.494954 -0.172882 3.082157 -2.337882 0.000600 -0.152000 -0.417700 0.823688 -0.926800 2.417760 4.285626 -3.201529 -9.141597 0.098882 -7.813264 23.347176 4.427980 -13.407092 -2.474169 -5.932600 14.362800 -44.710800 3.807894 3.979004 29.167942 0.523910 8.296111 -1.736730 1.919022 4.061611 2.846507 -6.176674 -5.436246 -9.608804 3.563124 -5.321845 0.837359 5.767900 -0.071500 -3.329300 -0.163386 0.342175 0.438281 -70.256832 28.320515 52.992866 9.276505 -29.887353 -3.716804 -0.382198 -4.455318 -24.870530 27.039940 29.641018 17.106000 -7.125000 0.000000 0.000000 -4.166800 66.866300 -2.196300 -1.861744 2.194178 2.482257 67.823326 42.909927 39.894316 -39.046725 43.312695 -22.632896 -1.249543 -1.861557 31.748116 -41.358027 33.950691 -27.848900 7.125000 0.000000 0.000000 -3.767200 14.931100 -4.619100 
-38.793801 16.690159 12.363476 -156.772763 77.693863 -143.377133 4.591121 -0.598974 -5.572903 -1.863680 17.555216 -45.864822 12.361461 20.147075 63.703201 -0.481790 3.963349 -2.527235 0.024600 -1.013300 -2.785300 0.796629 -1.174632 2.660477 4.025413 -2.709018 -8.167737 0.336042 -7.362196 22.131613 4.262239 -13.050380 -2.269055 -5.735500 14.167000 -43.910700 3.263801 4.776576 28.633419 0.443430 9.050747 -1.684249 2.047962 4.509293 3.061065 -6.384401 -5.899467 -9.098722 3.656039 -6.026034 0.880512 5.992600 -0.338000 -3.537100 -0.354913 0.383822 0.411627 -68.032349 29.911292 54.564919 9.702980 -30.928179 -4.029196 -0.214273 -4.714748 -26.291186 27.753958 30.305564 18.018200 -7.125000 0.000000 0.000000 -3.734600 68.033000 -2.067600 -1.567702 2.329103 2.751076 66.304813 45.160268 36.168954 -30.804082 37.836575 -16.761085 -1.582288 -2.264768 33.730010 -40.105389 33.629264 -26.997200 7.125000 0.000000 0.000000 -3.081300 14.709700 -3.767400 
-38.621841 16.651804 12.208666 -156.138223 77.277687 -142.356078 4.838466 -0.528743 -5.790828 -1.326895 17.842906 -46.931724 12.169276 20.056935 62.915693 -0.550243 4.119289 -2.071732 0.028200 -1.083300 -2.977900 0.796919 -1.368431 2.920817 4.072509 -2.195383 -7.194784 0.577369 -6.903834 20.901389 4.282907 -13.085465 -1.903072 -5.567600 13.995800 -43.220500 2.851561 5.468706 28.334698 0.409469 9.792488 -1.702003 2.530408 4.884036 2.889006 -6.934059 -6.455556 -8.797329 3.757374 -6.852275 0.927454 6.260200 -0.678200 -3.462500 -0.451367 0.191679 0.305406 -66.331875 31.692658 55.811422 10.365484 -32.212727 -4.494799 -0.071878 -4.873857 -27.435839 27.931792 30.612792 18.363500 -7.125000 0.000000 0.000000 -3.779400 68.573700 -2.138700 -1.246754 2.654478 2.969509 63.989972 46.866527 31.842123 -24.215816 32.147928 -12.533805 -1.965547 -2.722384 35.627915 -38.526627 32.467356 -25.499700 7.125000 0.000000 0.000000 -2.480600 13.550200 -2.995200 
-38.452894 16.603716 12.051191 -156.426473 76.745339 -142.103135 5.082168 -0.512631 -6.035251 -0.979400 17.912870 -48.113429 11.990218 19.978341 62.250246 -0.549459 4.051480 -1.328298 0.055700 -1.523300 -4.190000 0.826225 -1.592778 3.189610 4.003347 -1.776055 -6.323140 0.781458 -6.432155 19.581749 4.694547 -13.930591 -1.331506 -5.597800 14.026900 -43.345500 2.621706 6.223499 27.784156 0.328669 10.521962 -1.714088 2.473962 5.353454 2.870648 -7.039142 -7.197093 -8.403094 3.834937 -7.966909 0.929250 6.452000 -1.153600 -3.507000 -0.653564 0.143645 0.265035 -63.557367 32.902384 57.709817 11.196119 -33.613685 -5.101383 0.089094 -5.031542 -28.771048 27.563109 30.038094 17.966200 -7.125000 0.000000 0.000000 -3.933200 68.056800 -2.179800 -0.892196 2.924664 3.272368 61.394956 48.234500 26.100288 -18.582099 26.534289 -9.475850 -2.335607 -3.292821 38.298987 -37.975823 30.384936 -24.523100 7.125000 0.000000 0.000000 -2.734400 11.943400 -3.244300 
-38.272939 16.559452 11.882823 -157.632936 76.396099 -142.862503 5.281553 -0.506877 -6.243606 -1.028435 18.084973 -49.054387 11.783114 19.891959 61.583666 -0.581961 4.083049 -0.553214 0.177900 -2.717100 -7.492100 0.785920 -1.922584 3.502764 3.632284 -1.291466 -5.178177 0.993684 -5.911602 18.226199 4.512811 -13.550561 -0.913934 -5.301000 13.715000 -42.107600 2.179525 7.027930 27.289999 0.218811 11.232788 -1.709743 2.363270 5.846561 3.003086 -7.358165 -7.942952 -8.149027 3.997011 -9.130086 0.996631 6.842700 -1.616700 -3.418400 -0.982590 0.127549 0.269931 -60.636466 33.509522 59.458352 11.733192 -34.561326 -5.580022 0.215159 -5.108139 -30.318997 26.748370 28.081502 16.658800 -7.125000 0.000000 0.000000 -3.688700 65.903200 -1.862400 -0.579235 3.158257 3.598723 58.372533 49.376384 18.795917 -13.733996 21.204874 -7.188385 -3.087950 -3.501029 40.781052 -33.066948 28.983595 -20.292500 7.125000 0.000000 0.000000 -0.228000 9.283500 -0.261800 
